<svg width="256" height="128" version="1.1" viewBox="0 0 67.733 33.867" xmlns="http://www.w3.org/2000/svg">
 <g class="jp-icon3" fill="#616161" transform="translate(-41.622 -49.173)">
  <g transform="translate(1.8667 .93331)">
   <g transform="matrix(1.1491 0 0 1.1491 -10.977 -9.7173)">
    <g transform="matrix(1.0881 0 0 1.0881 1.632 .43674)" stroke-width=".26458">
     <g aria-label="jupyterlab ">
      <path d="m42.289 59.365q-0.127 0-0.32808-0.03175-0.20108-0.03175-0.33867-0.08467l0.127-0.80433q0.10583 0.03175 0.24342 0.05292 0.13758 0.02117 0.254 0.02117 0.508 0 0.71966-0.3175 0.22225-0.30692 0.22225-0.91016v-5.4081h0.98425v5.3975q0 1.0583-0.48683 1.5663-0.47625 0.51858-1.397 0.51858zm1.3864-8.4772q-0.26458 0-0.45508-0.16933-0.17992-0.17992-0.17992-0.47625t0.17992-0.46566q0.1905-0.17992 0.45508-0.17992 0.26458 0 0.4445 0.17992 0.1905 0.16933 0.1905 0.46566t-0.1905 0.47625q-0.17992 0.16933-0.4445 0.16933z"/>
      <path d="m50.247 57.227q-0.33867 0.08467-0.89958 0.17992-0.55033 0.09525-1.2806 0.09525-0.635 0-1.0689-0.17992-0.43392-0.1905-0.6985-0.52916-0.26458-0.33866-0.381-0.79375-0.11642-0.46566-0.11642-1.0266v-3.0903h0.98425v2.8787q0 1.0054 0.3175 1.4393 0.3175 0.43392 1.0689 0.43392 0.15875 0 0.32808-0.01058 0.16933-0.01058 0.3175-0.02117 0.14817-0.02117 0.26458-0.03175 0.127-0.02117 0.17992-0.04233v-4.6461h0.98425z"/>
      <path d="m55.761 54.645q0-0.96308-0.47625-1.4817-0.47625-0.51858-1.27-0.51858-0.4445 0-0.6985 0.03175-0.24342 0.03175-0.39158 0.07408v3.4713q0.17992 0.14817 0.51858 0.28575t0.74083 0.13758q0.42333 0 0.71966-0.14817 0.30692-0.15875 0.49742-0.42333 0.1905-0.27517 0.27517-0.635 0.08467-0.37042 0.08467-0.79375zm1.0266 0q0 0.62441-0.16933 1.1536-0.15875 0.52916-0.47625 0.91016t-0.78316 0.59266q-0.45508 0.21167-1.0477 0.21167-0.47625 0-0.84666-0.127-0.35983-0.127-0.53975-0.24342v2.2013h-0.98425v-7.2919q0.34925-0.08467 0.86783-0.17992 0.52916-0.10583 1.2171-0.10583 0.635 0 1.143 0.20108 0.508 0.20108 0.86783 0.5715 0.35983 0.37042 0.55033 0.91016 0.20108 0.52916 0.20108 1.1959z"/>
      <path d="m57.38 58.412q0.11642 0.05292 0.29633 0.09525 0.1905 0.05292 0.37042 0.05292 0.58208 0 0.91016-0.26458 0.32808-0.254 0.59266-0.83608-0.66675-1.27-1.2488-2.6882-0.5715-1.4287-0.9525-2.8892h1.0583q0.11642 0.47625 0.27516 1.0266 0.16933 0.55033 0.37042 1.1324 0.20108 0.58208 0.43392 1.1642 0.23283 0.58208 0.48683 1.1218 0.40216-1.1112 0.6985-2.2013 0.29633-1.0901 0.56092-2.2437h1.016q-0.381 1.5557-0.84666 2.9951-0.46566 1.4287-1.0054 2.6776-0.21167 0.47625-0.4445 0.81491-0.22225 0.34925-0.49742 0.5715-0.27517 0.22225-0.62441 0.32808-0.33867 0.10583-0.77258 0.10583-0.11642 0-0.24342-0.02117-0.127-0.01058-0.254-0.04233-0.11642-0.02117-0.22225-0.05292-0.09525-0.03175-0.13758-0.05292z"/>
      <path d="m64.206 51.883h2.0849v0.8255h-2.0849v2.54q0 0.41275 0.0635 0.68791 0.0635 0.26458 0.1905 0.42333 0.127 0.14817 0.3175 0.21167 0.1905 0.0635 0.4445 0.0635 0.4445 0 0.70908-0.09525 0.27517-0.10583 0.381-0.14817l0.1905 0.81491q-0.14817 0.07408-0.51858 0.17992-0.37042 0.11642-0.84666 0.11642-0.56091 0-0.93133-0.13758-0.35983-0.14817-0.58208-0.43392-0.22225-0.28575-0.3175-0.6985-0.08467-0.42333-0.08467-0.97366v-4.9107l0.98425-0.16933z"/>
      <path d="m67.127 54.645q0-0.73025 0.21167-1.27 0.21167-0.55033 0.56092-0.91016t0.80433-0.53975 0.93133-0.17992q1.1112 0 1.7039 0.6985 0.59266 0.68792 0.59266 2.1061 0 0.0635 0 0.16933 0 0.09525-0.01058 0.17992h-3.7677q0.0635 0.85725 0.49742 1.3017 0.43392 0.4445 1.3547 0.4445 0.51858 0 0.86783-0.08467 0.35983-0.09525 0.53975-0.17992l0.13758 0.8255q-0.17992 0.09525-0.635 0.20108-0.4445 0.10583-1.016 0.10583-0.71966 0-1.2488-0.21167-0.51858-0.22225-0.85725-0.60325-0.33866-0.381-0.508-0.89958-0.15875-0.52916-0.15875-1.1536zm3.7782-0.53975q0.01058-0.66675-0.33866-1.0901-0.33867-0.43392-0.94191-0.43392-0.33867 0-0.60325 0.13758-0.254 0.127-0.43392 0.33867t-0.28575 0.48683q-0.09525 0.27517-0.127 0.56092z"/>
      <path d="m75.382 51.766q0.127 0 0.28575 0.02117 0.16933 0.01058 0.32808 0.04233 0.15875 0.02117 0.28575 0.05292 0.13758 0.02117 0.20108 0.04233l-0.16933 0.85725q-0.11642-0.04233-0.39158-0.09525-0.26458-0.0635-0.68792-0.0635-0.27516 0-0.55033 0.0635-0.26458 0.05292-0.34925 0.07408v4.6249h-0.98425v-5.2705q0.34925-0.127 0.86783-0.23283 0.51858-0.11642 1.1642-0.11642z"/>
      <path d="m79.087 57.492q-0.91016-0.021166-1.2912-0.39158-0.381-0.37042-0.381-1.1536v-6.604l0.98425-0.16933v6.6146q0 0.24342 0.04233 0.40216 0.04233 0.15875 0.13758 0.254 0.09525 0.09525 0.254 0.14817 0.15875 0.04233 0.39158 0.07408z"/>
      <path d="m82.187 56.677q0.34925 0 0.61383-0.01058 0.27517-0.02117 0.45508-0.0635v-1.6404q-0.10583-0.05292-0.34925-0.08467-0.23283-0.04233-0.5715-0.04233-0.22225 0-0.47625 0.03175-0.24342 0.03175-0.45508 0.13758-0.20108 0.09525-0.33866 0.27517-0.13758 0.16933-0.13758 0.45508 0 0.52916 0.33866 0.74083 0.33867 0.20108 0.92075 0.20108zm-0.084666-4.9318q0.59266 0 0.99483 0.15875 0.41275 0.14817 0.65616 0.43392 0.254 0.27517 0.35983 0.66675 0.10583 0.381 0.10583 0.84666v3.4396q-0.127 0.02117-0.35983 0.0635-0.22225 0.03175-0.508 0.0635-0.28575 0.03175-0.62441 0.05292-0.32808 0.03175-0.65616 0.03175-0.46566 0-0.85725-0.09525t-0.67733-0.29633q-0.28575-0.21167-0.4445-0.55033-0.15875-0.33867-0.15875-0.81491 0-0.45508 0.17992-0.78316 0.1905-0.32808 0.508-0.52916 0.3175-0.20108 0.74083-0.29633t0.889-0.09525q0.14817 0 0.30692 0.02117 0.15875 0.01058 0.29633 0.04233 0.14817 0.02117 0.254 0.04233 0.10583 0.02117 0.14817 0.03175v-0.27516q0-0.24342-0.05292-0.47625-0.05292-0.24342-0.1905-0.42333-0.13758-0.1905-0.381-0.29633-0.23283-0.11642-0.61383-0.11642-0.48683 0-0.85725 0.07408-0.35983 0.0635-0.53975 0.13758l-0.11642-0.81492q0.1905-0.08467 0.635-0.15875 0.4445-0.08467 0.96308-0.08467z"/>
      <path d="m86.834 52.126q0.17992-0.11642 0.53975-0.24342 0.37042-0.127 0.84666-0.127 0.59266 0 1.0477 0.21167 0.46566 0.21167 0.78316 0.59266 0.3175 0.381 0.47625 0.91016 0.16933 0.52916 0.16933 1.1642 0 0.66675-0.20108 1.2065-0.1905 0.52916-0.55033 0.89958-0.35983 0.37042-0.86783 0.5715-0.508 0.20108-1.143 0.20108-0.68792 0-1.2171-0.09525t-0.86783-0.1905v-7.8846l0.98425-0.16933zm0 4.4027q0.14817 0.04233 0.41275 0.08467 0.27517 0.03175 0.67733 0.03175 0.79375 0 1.27-0.51858 0.47625-0.52916 0.47625-1.4922 0-0.42333-0.08467-0.79375-0.08467-0.37042-0.27517-0.635-0.1905-0.27517-0.49742-0.42333-0.29633-0.15875-0.71966-0.15875-0.40216 0-0.74083 0.13758-0.33866 0.13758-0.51858 0.28575z"/>
     </g>
     <g fill="#f37626" aria-label="classic">
      <path d="m64.99 69.411q-0.21167 0.13758-0.65616 0.26458-0.43392 0.127-0.97366 0.127-0.96308 0-1.4499-0.55033-0.48683-0.55033-0.48683-1.5134 0-0.71966 0.22225-1.3758 0.22225-0.66675 0.64558-1.1747 0.43392-0.508 1.0583-0.80433 0.62441-0.30692 1.4182-0.30692 0.55033 0 1.0901 0.17992l-0.28575 0.62442q-0.24342-0.09525-0.48683-0.127-0.23283-0.04233-0.45508-0.04233-0.56092 0-1.0266 0.24342-0.45508 0.23283-0.78316 0.64558-0.32808 0.40217-0.508 0.94191-0.17992 0.52916-0.17992 1.1218 0 0.6985 0.3175 1.1007 0.32808 0.40216 1.0372 0.40216 0.22225 0 0.4445-0.04233 0.23283-0.04233 0.42333-0.09525 0.1905-0.0635 0.33867-0.127t0.22225-0.11642z"/>
      <path d="m67.858 61.59 0.70908-0.127-1.3123 5.5139q-0.08467 0.35983-0.16933 0.68792-0.07408 0.3175-0.07408 0.59266 0 0.16933 0.03175 0.3175 0.03175 0.13758 0.127 0.254 0.09525 0.10583 0.26458 0.1905 0.17992 0.08467 0.45508 0.14817l-0.15875 0.60325q-0.77258-0.09525-1.0795-0.46567-0.30692-0.381-0.30692-0.9525 0-0.254 0.04233-0.52916 0.04233-0.28575 0.11642-0.59266z"/>
      <path d="m73.033 64.797q-0.1905-0.04233-0.34925-0.0635-0.15875-0.02117-0.32808-0.02117-0.65616 0-1.1642 0.254-0.508 0.254-0.85725 0.66675-0.34925 0.41275-0.53975 0.94191-0.17992 0.52916-0.17992 1.0795 0 0.43392 0.08467 0.73025 0.08467 0.28575 0.23283 0.46566 0.14817 0.16933 0.33867 0.254 0.20108 0.07408 0.42333 0.07408 0.43392 0 0.81491-0.20108 0.381-0.21167 0.71966-0.59266 0-0.28575 0.08467-0.65616 0.08467-0.37042 0.15875-0.66675zm-0.61383 4.9424q-0.0635-0.127-0.11642-0.28575-0.04233-0.16933-0.0635-0.33867-0.37042 0.35983-0.78316 0.52916-0.40216 0.16933-0.83608 0.16933-0.33866 0-0.64558-0.11642-0.30692-0.11642-0.53975-0.35983t-0.381-0.62441q-0.13758-0.39158-0.13758-0.92075 0-0.84666 0.27517-1.5346 0.27517-0.68791 0.762-1.1642 0.49742-0.48683 1.1642-0.75141 0.67733-0.26458 1.4711-0.26458 0.65616 0 1.2594 0.22225l-0.81491 3.2914q-0.0635 0.26458-0.10583 0.49742-0.04233 0.23283-0.04233 0.4445 0 0.28575 0.05292 0.53975t0.1905 0.56092z"/>
      <path d="m74.208 68.808q0.39158 0.21167 0.68791 0.28575 0.29633 0.07408 0.66675 0.07408 0.26458 0 0.508-0.05292 0.24342-0.0635 0.42333-0.17992 0.17992-0.11642 0.28575-0.30692 0.10583-0.1905 0.10583-0.4445 0-0.27517-0.15875-0.45508-0.14817-0.17992-0.381-0.30692-0.22225-0.13758-0.48683-0.26458-0.26458-0.127-0.49742-0.29633-0.22225-0.16933-0.381-0.42333-0.14817-0.254-0.14817-0.65616 0-0.45508 0.16933-0.77258 0.16933-0.32808 0.45508-0.52916 0.28575-0.21167 0.65616-0.30692 0.37042-0.09525 0.762-0.09525 0.33867 0 0.66675 0.0635 0.33867 0.05292 0.64558 0.16933l-0.27516 0.61383q-0.22225-0.09525-0.508-0.14817-0.28575-0.0635-0.59266-0.0635-0.254 0-0.49742 0.05292-0.23283 0.05292-0.41275 0.17992-0.17992 0.11642-0.29633 0.30692-0.10583 0.17992-0.10583 0.4445 0 0.27517 0.14817 0.45508 0.15875 0.17992 0.381 0.3175 0.22225 0.13758 0.48683 0.26458 0.27517 0.11642 0.49742 0.28575 0.22225 0.16933 0.37042 0.41275 0.15875 0.23283 0.15875 0.60325 0 0.46567-0.17992 0.80433-0.16933 0.33867-0.45508 0.55033t-0.65616 0.30692q-0.37042 0.10583-0.762 0.10583-0.41275 0-0.8255-0.09525-0.41275-0.08467-0.75142-0.27517z"/>
      <path d="m78.441 68.808q0.39158 0.21167 0.68792 0.28575 0.29633 0.07408 0.66675 0.07408 0.26458 0 0.508-0.05292 0.24342-0.0635 0.42333-0.17992t0.28575-0.30692q0.10583-0.1905 0.10583-0.4445 0-0.27517-0.15875-0.45508-0.14817-0.17992-0.381-0.30692-0.22225-0.13758-0.48683-0.26458-0.26458-0.127-0.49742-0.29633-0.22225-0.16933-0.381-0.42333-0.14817-0.254-0.14817-0.65616 0-0.45508 0.16933-0.77258 0.16933-0.32808 0.45508-0.52916 0.28575-0.21167 0.65616-0.30692 0.37042-0.09525 0.762-0.09525 0.33866 0 0.66675 0.0635 0.33866 0.05292 0.64558 0.16933l-0.27517 0.61383q-0.22225-0.09525-0.508-0.14817-0.28575-0.0635-0.59266-0.0635-0.254 0-0.49742 0.05292-0.23283 0.05292-0.41275 0.17992-0.17992 0.11642-0.29633 0.30692-0.10583 0.17992-0.10583 0.4445 0 0.27517 0.14817 0.45508 0.15875 0.17992 0.381 0.3175 0.22225 0.13758 0.48683 0.26458 0.27517 0.11642 0.49742 0.28575 0.22225 0.16933 0.37042 0.41275 0.15875 0.23283 0.15875 0.60325 0 0.46567-0.17992 0.80433-0.16933 0.33867-0.45508 0.55033-0.28575 0.21167-0.65616 0.30692-0.37042 0.10583-0.762 0.10583-0.41275 0-0.8255-0.09525-0.41275-0.08467-0.75141-0.27517z"/>
      <path d="m84.071 64.204h0.68792l-1.3229 5.4716h-0.68791zm0.27517-1.5981q0-0.27517 0.14817-0.41275 0.15875-0.14817 0.33867-0.14817 0.21167 0 0.32808 0.13758 0.11642 0.127 0.11642 0.33866 0 0.254-0.16933 0.39158-0.16933 0.13758-0.33867 0.13758-0.21167 0-0.3175-0.11642-0.10583-0.127-0.10583-0.32808z"/>
      <path d="m88.961 69.411q-0.21167 0.13758-0.65616 0.26458-0.43392 0.127-0.97366 0.127-0.96308 0-1.4499-0.55033-0.48683-0.55033-0.48683-1.5134 0-0.71966 0.22225-1.3758 0.22225-0.66675 0.64558-1.1747 0.43392-0.508 1.0583-0.80433 0.62442-0.30692 1.4182-0.30692 0.55033 0 1.0901 0.17992l-0.28575 0.62442q-0.24342-0.09525-0.48683-0.127-0.23283-0.04233-0.45508-0.04233-0.56092 0-1.0266 0.24342-0.45508 0.23283-0.78316 0.64558-0.32808 0.40217-0.508 0.94191-0.17992 0.52916-0.17992 1.1218 0 0.6985 0.3175 1.1007 0.32808 0.40216 1.0372 0.40216 0.22225 0 0.4445-0.04233 0.23283-0.04233 0.42333-0.09525 0.1905-0.0635 0.33866-0.127 0.14817-0.0635 0.22225-0.11642z"/>
     </g>
    </g>
   </g>
   <g transform="matrix(-.49337 -.22472 .22472 -.49337 399.35 1484.6)" fill="#9e9e9e" style="mix-blend-mode:normal">
    <g fill="#9e9e9e" style="mix-blend-mode:normal">
     <path d="m1658 2103.4c7.8502 0 14.706 2.8765 18.265 7.1341-1.3254-3.8204-3.7956-7.1308-7.0686-9.473-3.2731-2.3422-7.1871-3.6004-11.2-3.6004s-7.9273 1.2582-11.2 3.6004c-3.273 2.3422-5.7432 5.6526-7.0686 9.473 3.5674-4.2488 10.423-7.1341 18.273-7.1341z" fill="#9e9e9e" style="mix-blend-mode:normal"/>
    </g>
   </g>
  </g>
 </g>
</svg>
